<?xml version="1.0" encoding="utf-8"?>
<!-- Generator: Adobe Illustrator 19.0.0, SVG Export Plug-In . SVG Version: 6.00 Build 0)  -->
<svg version="1.1" id="Layer_1" xmlns="http://www.w3.org/2000/svg" xmlns:xlink="http://www.w3.org/1999/xlink" x="0px" y="0px"
	 viewBox="0 0 512 512" style="enable-background:new 0 0 512 512;" xml:space="preserve">
<style type="text/css">
	.st0{fill:#FFCE31;}
	.st1{fill:#C94747;}
	.st2{fill:#FF8736;}
	.st3{fill:#699635;}
</style>
<g id="XMLID_2_">
	<path id="XMLID_4_" class="st0" d="M231.7,51.8h176.7c-42.4-32.2-95-51-153.1-51s-110.7,18.8-153.1,51H201v408.3h-98.9
		c42.4,32.2,95,51,153.1,51s110.7-18.8,153.1-51H231.7V51.8z"/>
	<path id="XMLID_5_" class="st1" d="M510.4,256c0-83.2-40-157.1-102.1-204.2H231.7v408.3h176.7C470.4,413.1,510.4,339.2,510.4,256"
		/>
	<path id="XMLID_6_" class="st2" d="M201,51.8h-98.9c-0.8,0.8-2.4,1.6-3.1,2.4V457c0.8,0.8,2.4,1.6,3.1,2.4H201V51.8"/>
	<path id="XMLID_7_" class="st3" d="M0,256c0,81.7,38.5,154.7,98.9,201.8V54.2C38.5,101.3,0,174.3,0,256z"/>
	<path id="XMLID_8_" class="st0" d="M275.6,406c-9.4,7.1-27.5,6.3-34.6,14.1c-9.4,9.4,0.8,21.2,0.8,22.8l-0.8,7.1c0,0,6.3,0,9.4,0.8
		c3.9,0.8,6.3,3.9,12.6,3.1c18.8-0.8,18.1-18.1,18.8-32.2c0.8-5.5,3.1-12.6,3.9-18.1c0.8-5.5,1.6-11.8,1.6-11.8
		C287.4,389.5,281.9,401.3,275.6,406"/>
	<path id="XMLID_9_" class="st0" d="M281.9,91.9c-0.8-14.1,0-31.4-18.8-32.2c-7.9-0.8-9.4,2.4-12.6,3.1c-2.4,0-9.4,0.8-9.4,0.8
		l0.8,7.1c0,0.8-10.2,13.3-0.8,22.8c7.9,7.9,26.7,7.9,34.6,14.1c6.3,3.9,11.8,15.7,11.8,15.7s0-7.9-1.6-11.8
		C285.1,104.4,282.7,96.6,281.9,91.9"/>
	<path id="XMLID_10_" class="st0" d="M508.9,227.7c-7.1,0-12.6-0.8-18.8-0.8c2.4,1.6-7.1-29.8-1.6-33.8c6.3-4.7,1.6-35.3-3.1-42.4
		c0-0.8,0-2.4,0.8-3.1c-2.4-6.3-6.3-11.8-9.4-17.3c-9.4-3.1-17.3-9.4-20.4,3.9c-3.1-3.9-12.6-13.3-18.8-11
		c-0.8,3.1-1.6,7.1-3.1,10.2c-3.9,1.6-19.6-7.1-28.3-4.7c0,17.3-10.2,10.2-22,16.5c-22,10.2-11-9.4-25.9-9.4
		c-27.5,0,11,41.6,18.1,46.3c0.8-1.6-2.4-5.5,0-7.1c0,0,9.4,7.9,9.4,5.5c0.8-2.4,0.8-5.5,2.4-7.1c2.4,3.9,22,27.5,18.1,31.4
		c-0.8,0.8-19.6-0.8-19.6-0.8c0.8-1.6,1.6-6.3,1.6-7.1c-6.3-6.3-17.3-7.1-22.8-5.5c-5.5,1.6-14.1,8.6-15.7,17.3
		c3.1-0.8,15.7-3.9,17.3-2.4c0.8,0.8-3.1,7.1-3.1,7.9c5.5,0,15.7,2.4,18.1,2.4c0.8-1.6,2.4-3.9,3.1-6.3c2.4,3.1,3.9,7.1,7.1,11
		c2.4,1.6,7.9-15.7,12.6-3.1c1.6,3.9-41.6,44.8-44,60.5c-1.6,8.6,0,17.3,3.1,24.3c-7.9-8.6-28.3-31.4-33-29.1
		c-12.6,7.1-1.6,46.3,3.9,53.4c7.1,9.4,47.1,32.2,47.1,1.6c0-1.6-1.6-3.9-3.1-7.9c9.4,6.3,21.2,11,26.7,17.3
		c6.3,7.1,11,25.9,10.2,35.3c-2.4,24.3-40.8,1.6-40.8,29.1c0-3.1,37.7,1.6,40-0.8c6.3-3.9,24.3,10.2,21.2-10.2
		c-3.1-20.4,21.2-11,21.2-27.5c0-8.6-26.7,1.6-11.8-21.2c6.3-8.6,1.6-20.4,8.6-11c11,13.3,29.1,3.9,48.7-6.3
		c6.3-22,9.4-44.8,9.4-69.1C510.4,246.6,509.6,237.2,508.9,227.7"/>
	<path id="XMLID_11_" class="st0" d="M323.5,339.2c-1.6,6.3-10.2-26.7-8.6-28.3c3.1,0.8,6.3,0.8,9.4,0.8c2.4-1.6-6.3-6.3-13.3-8.6
		c7.1,0,12.6-2.4,12.6-3.9s-3.1-3.1-9.4-3.9c5.5-0.8,8.6-2.4,8.6-3.9s-4.7-3.9-10.2-4.7c6.3-0.8,11-2.4,11-3.9s-2.4-3.1-7.1-3.9
		c5.5-0.8,8.6-2.4,8.6-4.7c0-1.6-2.4-3.1-7.1-3.9c3.9-0.8,7.9-1.6,10.2-2.4c14.1-15.7-3.9-25.9-3.9-9.4c0,7.1-18.8,3.9-22,2.4
		s-1.6-3.1,0-6.3c3.1,1.6,18.8,3.9,19.6-18.1c0.8-9.4,0.8-139,12.6-139c-50.3-2.4-28.3,124.1-32.2,152.3
		c-3.1-6.3-18.1,0.8-13.3,10.2c2.4,5.5,8.6,7.9,14.1,9.4c-3.9,0.8-7.9,2.4-7.9,3.9s2.4,3.1,7.1,3.9c-4.7,0.8-8.6,2.4-8.6,3.9
		s3.9,3.1,10.2,3.9c-6.3,0.8-11,2.4-11,3.9s3.9,3.1,9.4,3.9c-4.7,0.8-8.6,2.4-8.6,3.9s2.4,3.1,7.1,3.9c-3.1,0.8-4.7,2.4-4.7,4.7
		c3.1,1.6,7.1,3.1,10.2,4.7c0,7.1-3.1,21.2-6.3,28.3c-0.8-2.4-3.1-3.1-5.5-3.9c-11,0.8,8.6,13.3,8.6,12.6c0,3.9-3.9,3.1-6.3,6.3
		c0,0,13.3,8.6,13.3,10.2c1.6-1.6,12.6-9.4,13.3-10.2c-1.6-1.6-6.3-3.1-6.3-6.3c0-1.6,11-3.9,11.8-7.9
		C330.6,338.5,324.3,335.3,323.5,339.2"/>
</g>
</svg>
