<?xml version="1.0" encoding="UTF-8" standalone="no"?>
<svg
   xmlns:dc="http://purl.org/dc/elements/1.1/"
   xmlns:cc="http://creativecommons.org/ns#"
   xmlns:rdf="http://www.w3.org/1999/02/22-rdf-syntax-ns#"
   xmlns:svg="http://www.w3.org/2000/svg"
   xmlns="http://www.w3.org/2000/svg"
   id="logo"
   version="1.1"
   viewBox="0 0 203.03514 108.02622"
   height="108.02622mm"
   width="203.03514mm">
  <defs
     id="defs2" />
  <metadata
     id="metadata5">
    <rdf:RDF>
      <cc:Work
         rdf:about="">
        <dc:format>image/svg+xml</dc:format>
        <dc:type
           rdf:resource="http://purl.org/dc/dcmitype/StillImage" />
        <dc:title></dc:title>
      </cc:Work>
    </rdf:RDF>
  </metadata>
  <g
     transform="translate(-3.4337953,-36.233911)"
     id="layer1">
    <g
       transform="translate(-312.20833,-4.9136905)"
       id="g3771">
      <g
         id="layer1-3"
         transform="matrix(0.26458333,0,0,0.26458333,314.08,39.642655)">
        <circle
           cx="425.19678"
           cy="283.46387"
           r="170.07861"
           id="circle6"
           style="fill:#0b3d91;fill-opacity:1"
           transform="matrix(1.200414,0,0,1.2002923,-300.34332,-130.40746)" />
        <path
           transform="matrix(1.200414,0,0,1.2002923,-300.35097,-130.40746)"
           d="m 425.1875,120.46875 c -89.97182,0 -162.96875,73.02818 -162.96875,163 0,89.97182 72.99693,163 162.96875,163 89.97182,0 163,-73.02818 163,-163 0,-89.97182 -73.02818,-163 -163,-163 z"
           id="path2537"
           style="fill:#ffffff" />
        <path
           transform="matrix(1.200414,0,0,1.2002923,-300.35097,-130.39217)"
           d="m 425.1875,126.5293 c -86.69199,0 -156.9082,70.24605 -156.9082,156.93945 0,86.6934 70.21621,156.93945 156.9082,156.93945 86.69199,0 156.93945,-70.24746 156.93945,-156.93945 0,-86.69199 -70.24746,-156.93945 -156.93945,-156.93945 z"
           id="path2543"
           style="fill:#fd1813" />
        <g
           transform="matrix(0.5674463,0,0,0.5488969,321.42012,207.79849)"
           id="g2675">
          <g
             id="g2651"
             transform="matrix(2.2748937,0,0,2.2936459,-1163.5098,-683.60347)">
            <path
               d="m 459.2124,283.55078 c 37.84571,18.91748 49.60694,67.11817 49.60694,84.95313 h -14.17383 c 0,-32.75147 -12.02295,-59.85547 -39.68506,-84.95313 27.66211,-25.11182 39.68506,-52.39746 39.68506,-85.12549 h 14.17383 c 0,17.81299 -11.76123,66.20459 -49.60694,85.12549"
               id="path2653"
               style="fill:#ffff00" />
            <path
               d="m 452.12598,283.55078 c 14.19531,12.37793 40.03759,38.37158 39.68506,84.95313 H 477.6377 c 0,-20.73536 -7.21094,-57.29786 -29.76368,-84.95313 22.55274,-27.65771 29.76368,-64.39258 29.76368,-85.12549 h 14.17334 c 0.35253,46.55713 -25.48975,72.75733 -39.68506,85.12549"
               id="path2655"
               style="fill:#ffff00" />
            <path
               d="m 445.03955,283.55078 c 9.82666,11.99072 30.12256,42.01563 29.76367,84.95313 h -14.17334 c 0.73584,-18.92383 -3.11865,-62.05371 -19.84228,-84.95313 16.72363,-22.92724 20.57812,-66.21533 19.84228,-85.12549 h 14.17334 c 0.35889,42.92578 -19.93701,73.11963 -29.76367,85.12549"
               id="path2657"
               style="fill:#ffff00" />
            <path
               d="m 437.95264,283.55078 c 8.7124,10.18164 20.57812,43.46338 19.84228,84.95313 h -14.17285 c 0,-22.9292 0.26465,-63.8628 -9.92139,-84.95313 10.18604,-21.10547 9.92139,-62.2207 9.92139,-85.12549 h 14.17285 c 0.73584,41.46485 -11.12988,74.92871 -19.84228,85.12549"
               id="path2659"
               style="fill:#ffff00" />
            <path
               d="m 426.61426,368.50391 h 14.17334 c 0.36181,-31.30371 -1.54297,-66.39698 -9.92139,-84.95313 8.37842,-18.5581 10.2832,-53.85693 9.92139,-85.12549 h -14.17334 z"
               id="path2661"
               style="fill:#ffff00" />
          </g>
          <g
             id="g2663"
             transform="matrix(2.2748937,0,0,2.2936459,-1163.5098,-683.60347)">
            <path
               d="m 391.18164,283.55078 c -37.8457,18.91748 -49.60742,67.11817 -49.60742,84.95313 h 14.17383 c 0,-32.75196 12.02343,-59.85547 39.68554,-84.95313 -27.66211,-25.11182 -39.68554,-52.39746 -39.68554,-85.12549 h -14.17383 c 0,17.81299 11.76172,66.20459 49.60742,85.12549"
               id="path2665"
               style="fill:#ffff00" />
            <path
               d="m 398.26758,283.55078 c -14.19531,12.37793 -40.03711,38.37158 -39.68457,84.95313 h 14.17285 c 0,-20.73536 7.21094,-57.29786 29.76367,-84.95313 -22.55273,-27.65771 -29.76367,-64.39258 -29.76367,-85.12549 h -14.17285 c -0.35254,46.55713 25.48926,72.75733 39.68457,85.12549"
               id="path2667"
               style="fill:#ffff00" />
            <path
               d="m 405.35449,283.55078 c -9.82715,11.99072 -30.12304,42.01563 -29.76367,84.95313 h 14.17285 c -0.73535,-18.92383 3.11914,-62.05371 19.84278,-84.95313 -16.72364,-22.92724 -20.57813,-66.21533 -19.84278,-85.12549 h -14.17285 c -0.35937,42.92578 19.93652,73.11963 29.76367,85.12549"
               id="path2669"
               style="fill:#ffff00" />
            <path
               d="m 412.44141,283.55078 c -8.71289,10.18164 -20.57813,43.46289 -19.84278,84.95313 h 14.17285 c 0,-22.92969 -0.26464,-63.8628 9.92188,-84.95313 -10.18652,-21.10547 -9.92188,-62.2207 -9.92188,-85.12549 h -14.17285 c -0.73535,41.46485 11.12989,74.92871 19.84278,85.12549"
               id="path2671"
               style="fill:#ffff00" />
            <path
               d="m 423.7793,368.50391 h -14.17285 c -0.36231,-31.30371 1.54296,-66.39698 9.92089,-84.95313 -8.37793,-18.5581 -10.2832,-53.85693 -9.92089,-85.12549 h 14.17285 z"
               id="path2673"
               style="fill:#ffff00" />
          </g>
        </g>
        <path
           transform="matrix(0.5932776,0,0,0.6159925,87.750024,267.23262)"
           d="m 204.28125,61.84375 c -16.4178,-0.152376 -28.86337,8.472991 -33.25,23.5625 -1.94461,6.68923 -1.39428,20.1917 1.09375,27.21875 3.26164,9.21203 11.65487,16.18955 22.5,18.65625 8.47636,1.92792 20.95438,0.93531 27.84375,-2.21875 6.72411,-3.0784 9.48875,-5.44312 13.34375,-11.4375 4.42648,-6.88299 4.26598,-7.0625 -7.09375,-7.0625 -9.07625,0 -10.07755,0.19498 -11.09375,2.09375 -2.49777,4.66713 -13.49306,6.41047 -19.875,3.15625 -4.13156,-2.10674 -6.8283,-5.61318 -7.6875,-10 l -0.65625,-3.25 h 25.28125 25.25 l -0.5,-8.40625 C 238.28531,75.68805 228.98661,65.1419 211.53125,62.4375 c -2.49586,-0.386688 -4.9046,-0.571982 -7.25,-0.59375 z m 75.09375,0 c -10.05402,0.328965 -19.05402,3.205717 -23.40625,7.875 -2.71111,2.90861 -6.25181,10.578129 -6.28125,13.59375 -0.0212,2.17395 0.30797,2.249999 9.3125,2.25 h 9.3125 l 1.4375,-3.21875 c 2.00179,-4.53147 5.21338,-5.912922 12.8125,-5.5 5.21313,0.28327 6.72585,0.773982 8.25,2.65625 4.79098,5.91661 1.37026,8.362007 -14.65625,10.59375 -20.64211,2.87447 -27.52912,7.759602 -28.3125,20.0625 -0.22253,3.49484 -0.10213,7.50325 0.25,8.90625 1.07805,4.29528 7.35784,10.3647 12.4375,12 5.56999,1.79314 17.00124,1.36226 22.125,-0.84375 1.925,-0.8288 5.075,-2.68709 7,-4.125 l 3.5,-2.625 0.875,3.5625 0.84375,3.53125 h 10.90625 c 11.77838,0 12.66531,-0.48256 8.65625,-4.75 -2.16567,-2.30525 -2.25804,-3.21883 -2.75,-27.25 l -0.53125,-24.875 -3,-3.15625 c -4.39834,-4.62437 -9.51286,-6.88531 -18.5,-8.15625 -3.45334,-0.488367 -6.92991,-0.640905 -10.28125,-0.53125 z M 49.75,61.9375 c -6.93924,0.148988 -13.594529,1.344445 -17.90625,3.5625 -6.775013,3.48524 -12.187499,11.251129 -12.1875,17.53125 0,2.5318 0.0012,2.531249 9.5,2.53125 7.98374,0 9.500001,-0.237271 9.5,-1.5625 0,-0.86731 1.329809,-2.892311 2.9375,-4.5 2.523665,-2.52367 3.678817,-2.937501 8.4375,-2.9375 3.031503,0 6.622636,0.445084 8,0.96875 4.756944,1.80859 5.815345,7.793041 1.75,9.96875 -0.966007,0.51699 -7.128257,1.68935 -13.6875,2.59375 -6.559244,0.9044 -14.070997,2.565016 -16.6875,3.6875 -10.858153,4.65812 -15.661157,16.76737 -10.84375,27.375 2.100691,4.62559 6.31198,8.02104 12.4375,10.03125 8.489876,2.78613 23.341945,-0.14474 29.375,-5.8125 2.347307,-2.20518 2.765116,-1.89972 3.5,2.6875 0.293938,1.8348 1.211347,2.02087 11.0625,2.28125 11.376671,0.30071 12.464689,-0.20384 8.96875,-4.0625 -1.543088,-1.7032 -1.767308,-4.65215 -2,-25.0625 C 81.761107,88.487815 81.400302,77.071158 81.125,75.84375 80.239781,71.89709 74.794516,66.750282 69.28125,64.6875 63.908686,62.677365 56.68924,61.788512 49.75,61.9375 Z m 76.9375,0.21875 c -6.03487,0.01949 -11.88292,0.62467 -14.9375,1.78125 -10.49013,3.97198 -15.616453,11.437048 -14.875,21.6875 0.758903,10.49172 6.50295,14.49441 27.34375,18.96875 16.04117,3.4439 17.66857,4.15822 17.25,7.78125 -0.49063,4.24688 -5.70964,6.4131 -14.15625,5.875 -7.58476,-0.4832 -11.6948,-2.69403 -12.65625,-6.78125 -0.54754,-2.32761 -0.92264,-2.41224 -10.78125,-2.6875 -10.053187,-0.28069 -10.209133,-0.25057 -10.1875,2 0.03282,3.41422 3.337767,9.94746 6.59375,13 3.66577,3.43671 10.62941,6.49301 17.5,7.71875 7.33985,1.30945 21.27895,0.55317 27.5625,-1.5 10.78618,-3.52443 16.8378,-11.55192 16.125,-21.40625 -0.78629,-10.870355 -7.23696,-15.47221 -27.4375,-19.5 -17.18613,-3.42674 -20.14032,-5.189191 -16.90625,-10.125 3.01531,-4.60195 16.19811,-4.49552 20.28125,0.15625 1.2375,1.40984 2.25,3.205674 2.25,4 0,1.16376 1.97738,1.437499 10.125,1.4375 h 10.125 l -0.71875,-3.71875 c -1.55306,-8.27854 -7.33828,-14.208972 -16.53125,-17 -3.73726,-1.13465 -9.93388,-1.70699 -15.96875,-1.6875 z m 243.96875,0 c -9.07652,-0.04806 -13.42709,1.348151 -18.4375,5.9375 -2.08935,1.91378 -3.98162,3.468749 -4.1875,3.46875 -0.20587,0 -0.375,-1.800001 -0.375,-4 v -4 h -9.5 -9.5 v 33.5 33.5 h 10 10 l 0.0312,-20.75 c 0.0191,-18.029085 0.26656,-21.271102 1.875,-24.8125 2.27777,-5.01512 6.85828,-7.437501 14.09375,-7.4375 4.38728,0 5.61601,0.459739 8.09375,2.9375 l 2.90625,2.90625 V 107 130.5625 h 10 10 v -26.03125 c 0,-28.278765 -0.25962,-29.996862 -5.59375,-35.34375 -4.75238,-4.76376 -10.89759,-6.9862 -19.40625,-7.03125 z m -166.875,14.75 c 7.51792,-0.0033 14.875,4.937467 14.875,11.625 0,1.96861 -0.5536,2.031249 -14,2.03125 -13.85296,0 -14.0037,-0.02363 -14,-2.25 0.005,-2.84796 3.31775,-8.304383 5.84375,-9.65625 2.2758,-1.217972 4.77528,-1.748888 7.28125,-1.75 z m 88.875,21.90625 v 5.125 c -0.005,6.27903 -2.44444,10.65551 -7.1875,12.90625 -8.10792,3.84746 -15.01412,2.8799 -17.59375,-2.5 -1.06268,-2.21624 -1.01874,-3.26933 0.1875,-6.15625 1.22991,-2.94358 2.27656,-3.74332 6.71875,-5.0625 2.89203,-0.85884 6.39984,-1.56961 7.8125,-1.59375 1.41268,-0.0241 4.25,-0.63896 6.3125,-1.375 z m -230.6875,0.75 c 0.533477,0 0.758012,2.41996 0.5,5.53125 -0.487962,5.88418 -2.790352,9.35285 -7.9375,12.03125 -6.961143,3.62234 -16.172551,2.03995 -17.4375,-3 -0.922511,-3.67558 0.23612,-7.28171 2.90625,-9.03125 1.928164,-1.26338 18.862779,-5.531251 21.96875,-5.53125 z"
           id="path2586"
           style="fill:#0b3d91;fill-opacity:1" />
      </g>
      <text
         xml:space="preserve"
         style="font-style:normal;font-weight:normal;font-size:31.28289795px;line-height:0.89999998;font-family:sans-serif;letter-spacing:0px;word-spacing:0px;fill:#0b3d91;fill-opacity:1;stroke:none;stroke-width:0.78207242"
         x="431.72443"
         y="76.252052"
         id="text3786"><tspan
           x="431.72443"
           y="76.252052"
           style="font-style:normal;font-variant:normal;font-weight:bold;font-stretch:normal;font-size:25.39999962px;font-family:Arial;-inkscape-font-specification:'Arial Bold';fill:#0b3d91;fill-opacity:1;stroke-width:0.78207242"
           id="tspan4632"><tspan
   style="font-style:normal;font-variant:normal;font-weight:bold;font-stretch:normal;font-size:25.39999962px;font-family:Arial;-inkscape-font-specification:'Arial Bold';fill:#fd1813;fill-opacity:1"
   id="tspan4622">A</tspan>SEAN</tspan><tspan
           x="431.72443"
           y="104.40666"
           style="font-style:normal;font-variant:normal;font-weight:bold;font-stretch:normal;font-size:25.39999962px;font-family:Arial;-inkscape-font-specification:'Arial Bold';fill:#0b3d91;fill-opacity:1;stroke-width:0.78207242"
           id="tspan4641"><tspan
   style="font-style:normal;font-variant:normal;font-weight:bold;font-stretch:normal;font-size:25.39999962px;font-family:Arial;-inkscape-font-specification:'Arial Bold';fill:#fd1813;fill-opacity:1"
   id="tspan4643">P</tspan>LUS</tspan><tspan
           x="431.72443"
           y="132.56126"
           style="font-style:normal;font-variant:normal;font-weight:bold;font-stretch:normal;font-size:25.39999962px;font-family:Arial;-inkscape-font-specification:'Arial Bold';fill:#0b3d91;fill-opacity:1;stroke-width:0.78207242"
           id="tspan3790"><tspan
   style="font-style:normal;font-variant:normal;font-weight:bold;font-stretch:normal;font-size:25.39999962px;font-family:Arial;-inkscape-font-specification:'Arial Bold';fill:#fd1813;fill-opacity:1"
   id="tspan4626">T</tspan>HREE</tspan></text>
    </g>
  </g>
</svg>
